<svg id="document_3_1" data-name="document (3) 1" xmlns="http://www.w3.org/2000/svg" width="46" height="46" viewBox="0 0 46 46">
  <path id="Path_62" data-name="Path 62" d="M18.545,25.97H20.03A6.68,6.68,0,0,1,26.7,19.3V17.812A8.16,8.16,0,0,0,18.545,25.97Z" fill="#262626"/>
  <path id="Path_63" data-name="Path 63" d="M38.095,32.852l6.819,6.819a3.716,3.716,0,0,1,0,5.252,3.755,3.755,0,0,1-5.243,0L32.852,38.1l1.05-1.05-.987-.987a12.329,12.329,0,0,1-1.757.9V46H0V0H21.08L31.159,10.087v4.89A11.831,11.831,0,0,1,36.2,33.06l.842.842ZM28.623,9.644,21.515,2.535V9.644ZM16.317,25.97A10.386,10.386,0,1,0,26.7,15.584,10.4,10.4,0,0,0,16.317,25.97ZM36,34.962l-.761-.761a14.285,14.285,0,0,1-1.087,1.005l.8.8Zm2.1-.009L34.953,38.1,40.2,43.347,43.347,40.2ZM41.346,44.3a2.275,2.275,0,0,0,2.517-.426,2.219,2.219,0,0,0,.435-2.526Zm-39.861.217H29.674V37.452A11.781,11.781,0,0,1,16.444,31.91s-.227-.458-.371-.753-.354-.732-.354-.732a11.771,11.771,0,0,1-.878-4.455,11.484,11.484,0,0,1,.1-1.485s.062-.451.118-.736.172-.749.172-.749a11.925,11.925,0,0,1,3.658-5.931s.6-.465,1-.748c.417-.3,1.087-.737,1.087-.737a11.709,11.709,0,0,1,8.7-1.1V11.129H20.03V1.485H1.485Z" fill="#262626" fill-rule="evenodd"/>
</svg>
