<svg id="trimtabs" xmlns="http://www.w3.org/2000/svg" width="152.707" height="45.339" viewBox="0 0 152.707 45.339">
  <path id="Контур_1" data-name="Контур 1" d="M10.993,48.045H.095v1.773h10.9Z" transform="translate(-0.009 -4.479)" fill="#fff"/>
  <path id="Контур_2" data-name="Контур 2" d="M10.993,45.158H.095v1.773h10.9Z" transform="translate(-0.009 -4.21)" fill="#fff"/>
  <path id="Контур_3" data-name="Контур 3" d="M10.993,42.179H.095v1.773h10.9Z" transform="translate(-0.009 -3.932)" fill="#fff"/>
  <path id="Контур_4" data-name="Контур 4" d="M10.993,39.292H.095v1.773h10.9Z" transform="translate(-0.009 -3.663)" fill="#fff"/>
  <path id="Контур_5" data-name="Контур 5" d="M10.993,36.313H.095v1.773h10.9Z" transform="translate(-0.009 -3.385)" fill="#fff"/>
  <path id="Контур_6" data-name="Контур 6" d="M10.993,33.426H.095V35.2h10.9Z" transform="translate(-0.009 -3.116)" fill="#fff"/>
  <path id="Контур_7" data-name="Контур 7" d="M10.993,30.447H.095V32.22h10.9Z" transform="translate(-0.009 -2.838)" fill="#fff"/>
  <path id="Контур_8" data-name="Контур 8" d="M10.993,27.56H.095v1.773h10.9Z" transform="translate(-0.009 -2.569)" fill="#fff"/>
  <path id="Контур_9" data-name="Контур 9" d="M10.993,24.581H.095v1.773h10.9Z" transform="translate(-0.009 -2.291)" fill="#fff"/>
  <path id="Контур_10" data-name="Контур 10" d="M10.993,21.6H.095v1.773h10.9Z" transform="translate(-0.009 -2.014)" fill="#fff"/>
  <path id="Контур_11" data-name="Контур 11" d="M10.993,18.715H.095v1.773h10.9Z" transform="translate(-0.009 -1.745)" fill="#fff"/>
  <path id="Контур_12" data-name="Контур 12" d="M10.993,15.736H.095v1.773h10.9Z" transform="translate(-0.009 -1.467)" fill="#fff"/>
  <path id="Контур_13" data-name="Контур 13" d="M28.88,48.045h-10.9v1.773h10.9Z" transform="translate(-1.676 -4.479)" fill="#fff"/>
  <path id="Контур_14" data-name="Контур 14" d="M28.88,45.158h-10.9v1.773h10.9Z" transform="translate(-1.676 -4.21)" fill="#fff"/>
  <path id="Контур_15" data-name="Контур 15" d="M28.88,42.179h-10.9v1.773h10.9Z" transform="translate(-1.676 -3.932)" fill="#fff"/>
  <path id="Контур_16" data-name="Контур 16" d="M28.88,39.292h-10.9v1.773h10.9Z" transform="translate(-1.676 -3.663)" fill="#fff"/>
  <path id="Контур_17" data-name="Контур 17" d="M28.88,36.313h-10.9v1.773h10.9Z" transform="translate(-1.676 -3.385)" fill="#fff"/>
  <path id="Контур_18" data-name="Контур 18" d="M28.88,33.426h-10.9V35.2h10.9Z" transform="translate(-1.676 -3.116)" fill="#fff"/>
  <path id="Контур_19" data-name="Контур 19" d="M28.88,30.447h-10.9V32.22h10.9Z" transform="translate(-1.676 -2.838)" fill="#fff"/>
  <path id="Контур_20" data-name="Контур 20" d="M28.88,27.56h-10.9v1.773h10.9Z" transform="translate(-1.676 -2.569)" fill="#fff"/>
  <path id="Контур_21" data-name="Контур 21" d="M28.88,24.581h-10.9v1.773h10.9Z" transform="translate(-1.676 -2.291)" fill="#fff"/>
  <path id="Контур_22" data-name="Контур 22" d="M28.88,21.6h-10.9v1.773h10.9Z" transform="translate(-1.676 -2.014)" fill="#fff"/>
  <path id="Контур_23" data-name="Контур 23" d="M28.88,18.715h-10.9v1.773h10.9Z" transform="translate(-1.676 -1.745)" fill="#fff"/>
  <path id="Контур_24" data-name="Контур 24" d="M28.88,15.736h-10.9v1.773h10.9Z" transform="translate(-1.676 -1.467)" fill="#fff"/>
  <path id="Контур_25" data-name="Контур 25" d="M27.2,8.845H0v1.773H27.2Z" transform="translate(0 -0.825)" fill="#fff"/>
  <path id="Контур_26" data-name="Контур 26" d="M27.2,5.866H0V7.639H27.2Z" transform="translate(0 -0.547)" fill="#fff"/>
  <path id="Контур_27" data-name="Контур 27" d="M27.2,2.98H0V4.753H27.2Z" transform="translate(0 -0.278)" fill="#fff"/>
  <path id="Контур_28" data-name="Контур 28" d="M27.2,0H0V1.773H27.2Z" fill="#fff"/>
  <path id="Контур_29" data-name="Контур 29" d="M54.993,6.7h-14V9.887h5.122V23.746h3.758V9.887h5.122Z" transform="translate(-3.821 -0.625)" fill="#fff"/>
  <path id="Контур_30" data-name="Контур 30" d="M57.84,6.7V23.746h3.71V17.067h3.327c2.441,0,3.16.838,3.4,3.184a12.237,12.237,0,0,0,.527,3.495h3.878c-.67-.622-.718-2.968-.814-4.045-.144-1.675-.622-3.59-2.513-3.973a4.247,4.247,0,0,0,2.7-4.189c0-3.423-2.609-4.835-5.745-4.835Zm3.71,2.944h3.71c1.58,0,3.136.335,3.136,2.3,0,2.106-1.556,2.418-3.3,2.418H61.55Z" transform="translate(-5.392 -0.625)" fill="#fff"/>
  <path id="Контур_31" data-name="Контур 31" d="M79.566,6.7H75.808V23.746h3.758Z" transform="translate(-7.067 -0.625)" fill="#fff"/>
  <path id="Контур_32" data-name="Контур 32" d="M82.669,23.746h3.566V11.754l4.237,11.992h2.9l4.189-12.112V23.746h3.518V6.7H95.858l-3.878,11.7L88.007,6.7H82.669Z" transform="translate(-7.706 -0.625)" fill="#fff"/>
  <path id="Контур_33" data-name="Контур 33" d="M118.218,6.7h-14V9.887h5.122V23.746H113.1V9.887h5.122Z" transform="translate(-9.715 -0.625)" fill="#fff"/>
  <path id="Контур_34" data-name="Контур 34" d="M127.229,6.677h-3.854l-6.487,17.066h3.83l1.388-3.806h6.343l1.34,3.806h3.925Zm.311,10.532h-4.524l2.274-6.343Z" transform="translate(-10.896 -0.622)" fill="#fff"/>
  <path id="Контур_35" data-name="Контур 35" d="M136.067,6.7V23.746h8.522c3.207,0,5.768-1.747,5.768-5.074a4.017,4.017,0,0,0-3.111-4.165,3.755,3.755,0,0,0,2.321-3.519c0-3.016-2.441-4.285-5.433-4.285Zm3.639,2.9h3.4c1.436,0,2.825.287,2.825,2.011S144.469,13.6,143.1,13.6h-3.4Zm0,6.535h3.566c1.676,0,3.351.263,3.351,2.322,0,2.011-1.555,2.322-3.159,2.322h-3.758Z" transform="translate(-12.684 -0.625)" fill="#fff"/>
  <path id="Контур_36" data-name="Контур 36" d="M166.255,11.741c-.072-3.806-2.968-5.433-6.559-5.433-3.974,0-6.558,2.011-6.558,5.1,0,3.471,2.657,4.165,5.433,4.955,3.518,1.005,4.667,1.245,4.667,2.585,0,1.412-1.2,2.274-3.159,2.274-2.274,0-3.782-.91-3.854-3.207h-3.711c.048,3.854,2.777,6.08,7.4,6.08,3.47,0,7.013-1.484,7.013-5.505,0-2.848-1.939-4.021-4.978-4.883-3.4-.957-5.219-1.077-5.219-2.561,0-1.221,1.029-1.939,2.753-1.939,1.987,0,3.088.886,3.231,2.537Z" transform="translate(-14.217 -0.588)" fill="#fff"/>
  <g id="Сгруппировать_3" data-name="Сгруппировать 3" transform="translate(36.858 27.894)" opacity="0.5">
    <path id="Контур_37" data-name="Контур 37" d="M45.585,30.762h-1.02l-3.917,9.712h.993l1.183-3.047h4.434l1.17,3.047h1.02Zm1.387,5.917H43.109l1.959-5.046Z" transform="translate(-40.647 -30.762)" fill="#fff"/>
    <path id="Контур_38" data-name="Контур 38" d="M56.111,35.783c0-1.5-1.1-2.231-2.639-2.231-1.591,0-2.571.748-2.571,1.972,0,1.537,1.551,1.714,2.693,1.986.734.177,1.918.394,1.918,1.374,0,.816-.762,1.36-1.9,1.36-1.292,0-2.068-.626-2.068-1.8h-.83c.041,1.605,1.075,2.5,2.87,2.5,1.66,0,2.775-.871,2.775-2.149,0-1.455-1.455-1.809-2.6-2.067-1.319-.3-2-.449-2-1.319,0-.707.626-1.156,1.632-1.156,1.129,0,1.809.462,1.891,1.523Z" transform="translate(-41.586 -31.022)" fill="#fff"/>
    <path id="Контур_39" data-name="Контур 39" d="M63.333,35.783c0-1.5-1.1-2.231-2.639-2.231-1.591,0-2.571.748-2.571,1.972,0,1.537,1.551,1.714,2.693,1.986.735.177,1.918.394,1.918,1.374,0,.816-.762,1.36-1.9,1.36-1.292,0-2.067-.626-2.067-1.8h-.83c.041,1.605,1.075,2.5,2.87,2.5,1.66,0,2.775-.871,2.775-2.149,0-1.455-1.455-1.809-2.6-2.067-1.319-.3-2-.449-2-1.319,0-.707.626-1.156,1.632-1.156,1.129,0,1.809.462,1.891,1.523Z" transform="translate(-42.259 -31.022)" fill="#fff"/>
    <path id="Контур_40" data-name="Контур 40" d="M71.357,38.435h-.83a2.075,2.075,0,0,1-2.135,1.836c-1.687,0-2.367-1.36-2.367-2.829h5.4V37.2c0-1.932-1.007-3.645-3.074-3.645-1.877,0-3.2,1.551-3.2,3.768s1.265,3.645,3.21,3.645A2.878,2.878,0,0,0,71.357,38.435Zm-.789-1.687H66.025c.163-1.306.775-2.489,2.3-2.489C69.63,34.259,70.473,35.2,70.568,36.749Z" transform="translate(-42.932 -31.022)" fill="#fff"/>
    <path id="Контур_41" data-name="Контур 41" d="M76.066,33.542H74.624V31.407h-.843v2.135H72.543v.694h1.238v4.013a6.327,6.327,0,0,0,.082,1.537c.163.68.843.8,1.455.8a4.729,4.729,0,0,0,.748-.054V39.8a5.08,5.08,0,0,1-.558.041c-.911,0-.884-.462-.884-1.17V34.236h1.442Z" transform="translate(-43.621 -30.822)" fill="#fff"/>
    <path id="Контур_42" data-name="Контур 42" d="M91.545,30.792H90.28L87.5,37.729c-.231.585-.422,1.2-.639,1.8-.218-.612-.422-1.224-.667-1.823l-2.816-6.91H82.132v9.685h.884V34.6c0-.993-.041-1.972-.109-2.965.19.6.394,1.2.639,1.782l2.9,7.06h.83l2.856-7.141c.231-.571.449-1.17.639-1.755-.068,1.02-.109,2.027-.109,3.047v5.849h.884Z" transform="translate(-44.515 -30.765)" fill="#fff"/>
    <path id="Контур_43" data-name="Контур 43" d="M100.558,40.04a1.014,1.014,0,0,1-.326.041c-.476,0-.462-.286-.462-.707V35.565c0-1.319-.993-2.013-2.571-2.013-1.728,0-2.748.857-2.816,2.353H95.2a1.648,1.648,0,0,1,1.9-1.646c1.115,0,1.823.354,1.823,1.51,0,.354-.068.544-.245.666a5.273,5.273,0,0,1-2.04.367c-1.728.177-2.6.884-2.6,2.163,0,1.224.857,1.959,2.285,1.959a2.928,2.928,0,0,0,2.639-1.4c0,.639.082,1.279.912,1.279a1.927,1.927,0,0,0,.68-.109Zm-1.633-3.115v1.143a2.2,2.2,0,0,1-2.38,2.149c-.979,0-1.605-.517-1.605-1.333,0-1.143,1.2-1.347,2.081-1.469C97.96,37.293,98.654,37.225,98.926,36.925Z" transform="translate(-45.625 -31.022)" fill="#fff"/>
    <path id="Контур_44" data-name="Контур 44" d="M103.043,33.742h-.8v6.992h.857V36.953c0-1.809.925-2.652,2.2-2.652,1.061,0,1.782.5,1.782,1.945v4.489h.857V35.973a2.2,2.2,0,0,0-2.421-2.421,2.582,2.582,0,0,0-2.476,1.51Z" transform="translate(-46.389 -31.022)" fill="#fff"/>
    <path id="Контур_45" data-name="Контур 45" d="M116.393,40.04a1.014,1.014,0,0,1-.326.041c-.476,0-.462-.286-.462-.707V35.565c0-1.319-.993-2.013-2.571-2.013-1.727,0-2.748.857-2.816,2.353h.816a1.648,1.648,0,0,1,1.9-1.646c1.115,0,1.823.354,1.823,1.51,0,.354-.068.544-.245.666a5.272,5.272,0,0,1-2.04.367c-1.727.177-2.6.884-2.6,2.163,0,1.224.857,1.959,2.285,1.959a2.928,2.928,0,0,0,2.639-1.4c0,.639.082,1.279.911,1.279a1.927,1.927,0,0,0,.68-.109Zm-1.632-3.115v1.143a2.2,2.2,0,0,1-2.38,2.149c-.979,0-1.605-.517-1.605-1.333,0-1.143,1.2-1.347,2.081-1.469C113.8,37.293,114.489,37.225,114.761,36.925Z" transform="translate(-47.101 -31.022)" fill="#fff"/>
    <path id="Контур_46" data-name="Контур 46" d="M123.974,33.742H123.2v1.319a2.5,2.5,0,0,0-2.38-1.51c-1.864,0-3.1,1.442-3.1,3.632,0,2.108,1.183,3.469,3.034,3.469a2.485,2.485,0,0,0,2.421-1.537v1.17c0,1.591-.558,2.53-2.285,2.53-1.211,0-1.892-.476-2.028-1.442H118c.1,1.347,1.143,2.108,2.844,2.108a2.779,2.779,0,0,0,3.128-3.128Zm-3.115.544c1.4,0,2.3,1.075,2.3,2.734,0,1.782-.9,2.9-2.326,2.9-1.375,0-2.259-1.088-2.259-2.8C118.573,35.375,119.457,34.287,120.859,34.287Z" transform="translate(-47.832 -31.022)" fill="#fff"/>
    <path id="Контур_47" data-name="Контур 47" d="M132.194,38.435h-.83a2.075,2.075,0,0,1-2.135,1.836c-1.687,0-2.367-1.36-2.367-2.829h5.4V37.2c0-1.932-1.007-3.645-3.074-3.645-1.877,0-3.2,1.551-3.2,3.768s1.265,3.645,3.21,3.645A2.877,2.877,0,0,0,132.194,38.435Zm-.789-1.687h-4.543c.163-1.306.775-2.489,2.3-2.489C130.467,34.259,131.31,35.2,131.405,36.749Z" transform="translate(-48.603 -31.022)" fill="#fff"/>
    <path id="Контур_48" data-name="Контур 48" d="M135.008,33.742h-.8v6.992h.857V36.762c0-1.36.612-2.448,2.04-2.448,1.129,0,1.537.666,1.537,1.727v4.693h.843V36.449a1.885,1.885,0,0,1,1.945-2.135,1.464,1.464,0,0,1,1.62,1.659v4.761h.857V35.742a2.059,2.059,0,0,0-2.244-2.19,2.5,2.5,0,0,0-2.327,1.36,1.925,1.925,0,0,0-2-1.36,2.574,2.574,0,0,0-2.326,1.415Z" transform="translate(-49.369 -31.022)" fill="#fff"/>
    <path id="Контур_49" data-name="Контур 49" d="M152.468,38.435h-.83a2.075,2.075,0,0,1-2.135,1.836c-1.687,0-2.367-1.36-2.367-2.829h5.4V37.2c0-1.932-1.007-3.645-3.074-3.645-1.877,0-3.2,1.551-3.2,3.768s1.265,3.645,3.21,3.645A2.877,2.877,0,0,0,152.468,38.435Zm-.789-1.687h-4.543c.163-1.306.775-2.489,2.3-2.489C150.741,34.259,151.584,35.2,151.679,36.749Z" transform="translate(-50.493 -31.022)" fill="#fff"/>
    <path id="Контур_50" data-name="Контур 50" d="M155.267,33.742h-.8v6.992h.857V36.953c0-1.809.925-2.652,2.2-2.652,1.061,0,1.783.5,1.783,1.945v4.489h.857V35.973a2.2,2.2,0,0,0-2.422-2.421,2.582,2.582,0,0,0-2.475,1.51Z" transform="translate(-51.257 -31.022)" fill="#fff"/>
    <path id="Контур_51" data-name="Контур 51" d="M165.234,33.542h-1.442V31.407h-.843v2.135h-1.238v.694h1.238v4.013a6.328,6.328,0,0,0,.082,1.537c.163.68.843.8,1.455.8a4.729,4.729,0,0,0,.748-.054V39.8a5.08,5.08,0,0,1-.558.041c-.911,0-.884-.462-.884-1.17V34.236h1.442Z" transform="translate(-51.933 -30.822)" fill="#fff"/>
  </g>
</svg>
