<svg xmlns="http://www.w3.org/2000/svg" width="35.757" height="45.998" viewBox="0 0 35.757 45.998">
  <g id="medal_2_" data-name="medal (2)" transform="translate(-56.55)">
    <g id="Group_33" data-name="Group 33" transform="translate(56.55)">
      <g id="Group_32" data-name="Group 32" transform="translate(0)">
        <path id="Path_57" data-name="Path 57" d="M87.336,27.726,90.541,25.2l-.018-4.084,1.784-3.676-1.775-3.676.018-4.084L87.345,7.144,85.589,3.459l-3.984-.9L78.417,0,74.433.933,70.458,0,67.271,2.562l-3.984.9L61.53,7.144,58.316,9.68l.018,4.084L56.55,17.439l1.784,3.676L58.316,25.2l3.205,2.535,1.286,2.707L57.6,41.607l6.166-.942L67.008,46l5.4-11.581,2.019-.471,1.594.371L81.469,46l3.242-5.333,6.166.942L85.851,30.831Zm-20.5,15.13-2.318-3.812-4.4.67,3.8-8.167,3.35.752,3.187,2.562Zm7.6-10.44-3.613.851L67.932,30.94l-3.622-.815-1.594-3.35-2.916-2.3.018-3.712L58.2,17.43l1.621-3.341L59.8,10.377l2.916-2.3,1.594-3.35,3.622-.815L70.82,1.585l3.613.842,3.613-.842,2.888,2.327,3.622.815,1.594,3.35,2.916,2.3-.018,3.712,1.621,3.332-1.621,3.332.018,3.712-2.916,2.3-1.594,3.35-3.622.815-2.888,2.327Zm13.926,7.307-4.4-.67-2.318,3.8-3.785-8.113.552.127L81.6,32.307l3-.67Z" transform="translate(-56.55)" fill="#262626"/>
      </g>
    </g>
    <g id="Group_35" data-name="Group 35" transform="translate(61.603 4.609)">
      <g id="Group_34" data-name="Group 34" transform="translate(0)">
        <path id="Path_58" data-name="Path 58" d="M125.181,50.9a12.831,12.831,0,1,0,12.831,12.831A12.849,12.849,0,0,0,125.181,50.9Zm0,24.176a11.346,11.346,0,1,1,11.346-11.346A11.357,11.357,0,0,1,125.181,75.076Z" transform="translate(-112.35 -50.9)" fill="#262626"/>
      </g>
    </g>
  </g>
</svg>
