<svg xmlns="http://www.w3.org/2000/svg" xmlns:xlink="http://www.w3.org/1999/xlink" width="46" height="46" viewBox="0 0 46 46">
  <defs>
    <clipPath id="clip-path">
      <rect id="Rectangle_17" data-name="Rectangle 17" width="46" height="46" fill="#262626"/>
    </clipPath>
  </defs>
  <g id="bars_1" data-name="bars 1" clip-path="url(#clip-path)">
    <path id="Path_59" data-name="Path 59" d="M32.644,10.95H25.273L23,3.941,20.727,10.95H13.356l5.958,4.328-2.273,7.009L23,17.958l5.958,4.328-2.273-7.009ZM23,16.12,19.858,18.4l1.2-3.695-3.142-2.282h3.876l1.2-3.694,1.2,3.694h3.876L24.91,14.708,26.142,18.4Z" fill="#262626"/>
    <path id="Path_60" data-name="Path 60" d="M19.287,30.722H11.917L9.644,23.713,7.371,30.722H0L5.958,35.05,3.685,42.059,9.644,37.73,15.6,42.059,13.329,35.05Zm-9.644,5.17L6.5,38.174,7.7,34.48,4.555,32.2H8.43l1.2-3.694,1.2,3.694H14.7L11.554,34.48l1.231,3.694Z" fill="#262626"/>
    <path id="Path_61" data-name="Path 61" d="M46,30.722H38.629l-2.273-7.009-2.273,7.009H26.713l5.958,4.328L30.4,42.059l5.958-4.328,5.958,4.328L40.042,35.05Zm-9.644,5.17-3.142,2.282,1.2-3.694L31.267,32.2h3.876l1.2-3.694,1.2,3.694h3.876L38.267,34.48,39.5,38.174Z" fill="#262626"/>
  </g>
</svg>
